<mxfile host="app.diagrams.net" modified="2020-11-02T16:29:58.892Z" agent="5.0 (Macintosh; Intel Mac OS X 10_15_7) AppleWebKit/537.36 (KHTML, like Gecko) Chrome/86.0.4240.111 Safari/537.36" etag="D3e_vfBGCspWjvyjXDhl" version="13.8.8" type="github">
  <diagram id="jnJ1Us1EwghHIy9DxrSV" name="Page-1">
    <mxGraphModel dx="858" dy="579" grid="1" gridSize="10" guides="1" tooltips="1" connect="1" arrows="1" fold="1" page="1" pageScale="1" pageWidth="827" pageHeight="1169" math="0" shadow="0">
      <root>
        <mxCell id="0" />
        <mxCell id="1" parent="0" />
      </root>
    </mxGraphModel>
  </diagram>
</mxfile>
